<?xml version="1.0" encoding="utf-8"?>
<!-- Svg Vector Icons : http://www.onlinewebfonts.com/icon -->
<!DOCTYPE svg PUBLIC "-//W3C//DTD SVG 1.1//EN" "http://www.w3.org/Graphics/SVG/1.1/DTD/svg11.dtd">
<svg version="1.1" xmlns="http://www.w3.org/2000/svg" xmlns:xlink="http://www.w3.org/1999/xlink" x="0px" y="0px" viewBox="0 0 1000 1000" enable-background="new 0 0 1000 1000" xml:space="preserve">
<metadata> Svg Vector Icons : http://www.onlinewebfonts.com/icon </metadata>
<g><g transform="translate(0.000000,511.000000) scale(0.100000,-0.100000)"><path d="M4413.1,4986.7c-731.6-92-1504.6-375-2107.4-775.3C1091,3410.8,299.6,2124.7,122.4,663.8c-29.9-250.8-29.9-853.5,0-1104.3c66.7-552.1,232.4-1111.2,469.3-1596.6C844.8-2554.7,1116.3-2932,1535-3353c421-418.7,800.6-690.2,1313.7-943.2c676.4-329,1385-492.3,2151.1-492.3c1322.8,0,2528.4,499.2,3464.7,1435.6C9400.8-2416.7,9900-1211.1,9900,111.7c0,1686.3-825.9,3195.5-2266.1,4141.1c-561.4,368.1-1352.7,646.5-2082,736.2C5321.8,5016.6,4643.1,5014.3,4413.1,4986.7z M5319.5,4022.7c2358.1-209.4,4000.7-2406.4,3522.2-4711.6C8600.1-1848.4,7838.7-2840,6766.6-3387.5c-1263-641.9-2763-549.8-3952.4,243.9c-1628.8,1088.2-2204,3246.1-1332.1,4990c662.6,1327.5,1969.3,2153.4,3471.6,2197.1C5011.2,4043.4,5174.5,4034.2,5319.5,4022.7z"/><path d="M3515.8,1584.1L3170.7,1239l563.7-563.6L4298,111.7l-563.6-563.6l-563.7-563.7l352-349.7l349.7-352l563.7,563.6L4999.7-590l563.6-563.7l563.6-563.6l349.7,352l352,349.7L6265-451.9l-563.6,563.6L6265,675.4l563.7,563.6l-352,349.7l-349.7,352L5563.4,1377l-563.6-563.6l-559,559c-306,306-561.4,556.7-568.3,556.7C3865.5,1929.2,3704.5,1772.7,3515.8,1584.1z"/></g></g>
</svg>