<svg viewBox="0 0 472 701" fill="none" xmlns="http://www.w3.org/2000/svg">
<rect x="129.346" width="343.654" height="701" fill="#FCFFB2"/>
<path d="M44.459 701L55.4121 671.792C66.3652 642.583 88.2715 584.167 88.2715 525.75C88.2715 467.333 66.3652 408.917 44.459 350.5C22.5527 292.083 0.646484 233.667 0.646484 175.25C0.646484 116.833 22.5527 58.4167 33.5059 29.2083L44.459 -3.8147e-06H153.99V29.2083C153.99 58.4167 153.99 116.833 153.99 175.25C153.99 233.667 153.99 292.083 153.99 350.5C153.99 408.917 153.99 467.333 153.99 525.75C153.99 584.167 153.99 642.583 153.99 671.792V701H44.459Z" fill="#FCFFB2"/>
</svg>
